<?xml version="1.0" encoding="UTF-8" standalone="no"?>
<!-- Created with Inkscape (http://www.inkscape.org/) -->

<svg
   width="209.44727mm"
   height="58.035686mm"
   viewBox="0 0 209.44727 58.035686"
   version="1.1"
   id="svg1"
   inkscape:version="1.3.2 (091e20e, 2023-11-25, custom)"
   sodipodi:docname="2_krazki.svg"
   xmlns:inkscape="http://www.inkscape.org/namespaces/inkscape"
   xmlns:sodipodi="http://sodipodi.sourceforge.net/DTD/sodipodi-0.dtd"
   xmlns="http://www.w3.org/2000/svg"
   xmlns:svg="http://www.w3.org/2000/svg">
  <sodipodi:namedview
     id="namedview1"
     pagecolor="#ffffff"
     bordercolor="#000000"
     borderopacity="0.25"
     inkscape:showpageshadow="2"
     inkscape:pageopacity="0.0"
     inkscape:pagecheckerboard="0"
     inkscape:deskcolor="#d1d1d1"
     inkscape:document-units="mm"
     inkscape:zoom="1.3063909"
     inkscape:cx="326.47197"
     inkscape:cy="161.13095"
     inkscape:window-width="1920"
     inkscape:window-height="1001"
     inkscape:window-x="-9"
     inkscape:window-y="-9"
     inkscape:window-maximized="1"
     inkscape:current-layer="layer1" />
  <defs
     id="defs1" />
  <g
     inkscape:label="Warstwa 1"
     inkscape:groupmode="layer"
     id="layer1"
     transform="translate(-0.37738246)">
    <rect
       style="fill:#ff8500;fill-opacity:1;stroke-width:0.250181"
       id="rect4"
       width="209.44727"
       height="58.035686"
       x="0.37738246"
       y="0" />
    <ellipse
       style="opacity:1;fill:#ff8500;fill-opacity:1;stroke:#000000;stroke-width:0.488268;stroke-dasharray:none;stroke-opacity:1"
       id="path4"
       cx="31.939175"
       cy="30.045496"
       rx="16.431396"
       ry="15.669865" />
    <ellipse
       style="fill:#ff8500;fill-opacity:1;stroke:#000000;stroke-width:0.488268;stroke-dasharray:none;stroke-opacity:1"
       id="path4-5"
       cx="78.887703"
       cy="29.71854"
       rx="16.431396"
       ry="15.669865" />
    <ellipse
       style="fill:#ff8500;fill-opacity:1;stroke:#000000;stroke-width:0.488268;stroke-dasharray:none;stroke-opacity:1"
       id="path4-4"
       cx="127.26276"
       cy="30.0268"
       rx="16.431396"
       ry="15.669865" />
    <ellipse
       style="fill:#ff8500;fill-opacity:1;stroke:#000000;stroke-width:0.488268;stroke-dasharray:none;stroke-opacity:1"
       id="path4-9"
       cx="175.6983"
       cy="29.895775"
       rx="16.431396"
       ry="15.669865" />
    <ellipse
       style="opacity:1;fill:#ff8500;fill-opacity:1;stroke:#000000;stroke-width:0.600001;stroke-dasharray:none;stroke-opacity:1"
       id="path5"
       cx="31.883654"
       cy="30.074169"
       rx="14.034613"
       ry="12.888929" />
    <path
       style="opacity:1;fill:#000000;fill-opacity:1;stroke:#000000;stroke-width:0.613721;stroke-dasharray:none;stroke-opacity:1"
       d="M 112.85425,171.42022 C 99.047319,170.01831 85.928959,163.97598 75.998355,154.44434 51.37666,130.81185 52.565424,92.586746 78.61568,70.283356 87.709556,62.497473 98.846186,57.623338 111.6364,55.831279 c 3.58923,-0.502893 12.57981,-0.419791 16.37334,0.151343 18.01894,2.712837 33.0824,12.032501 42.79475,26.476832 9.61892,14.305392 12.0677,32.561216 6.56374,48.933206 -1.28024,3.80819 -4.22438,9.7778 -6.5402,13.26105 -8.5145,12.80679 -22.35945,22.16824 -37.81157,25.5668 -5.62605,1.2374 -14.55717,1.76883 -20.16221,1.19971 z m 16.23802,-8.63886 c 10.00367,-1.74282 19.12156,-5.95992 26.82302,-12.40587 8.1609,-6.83049 14.06492,-16.44733 16.30623,-26.56057 3.82889,-17.27674 -2.41876,-35.234682 -16.30049,-46.853314 -21.11973,-17.676634 -52.56468,-17.676634 -73.684404,0 -13.865992,11.605461 -20.156944,29.662054 -16.31008,46.813984 2.308397,10.29239 8.084058,19.71015 16.31008,26.59511 7.720172,6.46157 17.041641,10.76355 26.828754,12.38181 4.66743,0.77174 5.10655,0.79924 11.2313,0.70314 4.03097,-0.0632 6.27623,-0.23537 8.79559,-0.67429 z"
       id="path19"
       transform="matrix(0.26458333,0,0,0.26458333,0.37738246,0)" />
    <path
       style="opacity:1;fill:#ffffff;fill-opacity:1;stroke:#000000;stroke-width:0.613721;stroke-dasharray:none;stroke-opacity:1"
       d="m 113.66615,160.84662 c -20.387966,-1.92035 -38.071638,-15.31 -44.082429,-33.37815 -1.664647,-5.00385 -2.039873,-7.54273 -2.039873,-13.80232 0,-4.8955 0.08522,-6.07721 0.61479,-8.52496 3.213113,-14.85151 12.972261,-26.845761 27.380535,-33.6514 24.223097,-11.441595 53.968227,-3.563432 68.036347,18.019798 2.97483,4.563973 5.20115,9.981732 6.42349,15.631602 0.52957,2.44775 0.61479,3.62946 0.61479,8.52496 0,4.8955 -0.0852,6.07721 -0.61479,8.52496 -2.02913,9.37899 -6.41447,17.25573 -13.34632,23.97203 -2.91931,2.82853 -4.3527,3.97541 -7.72719,6.18264 -10.11782,6.61799 -22.7964,9.67473 -35.25935,8.50084 z"
       id="path20"
       transform="matrix(0.26458333,0,0,0.26458333,0.37738246,0)" />
    <path
       style="fill:#ffffff;fill-opacity:1;stroke:#000000;stroke-width:0.16238;stroke-dasharray:none;stroke-opacity:1"
       d="M 77.397503,42.137913 C 72.003188,41.62982 67.324383,38.087142 65.734028,33.306611 65.29359,31.982676 65.194311,31.31093 65.194311,29.654747 c 0,-1.295268 0.02255,-1.607928 0.162663,-2.255562 0.850137,-3.929462 3.432244,-7.102941 7.244434,-8.9036 6.409027,-3.027255 14.279093,-0.942824 18.001283,4.767739 0.78709,1.207551 1.376137,2.640999 1.699548,4.135861 0.140116,0.647634 0.162663,0.960294 0.162663,2.255562 0,1.295268 -0.02254,1.607929 -0.162663,2.255562 -0.536874,2.481525 -1.697162,4.565579 -3.531214,6.3426 -0.7724,0.748382 -1.151651,1.051827 -2.044485,1.635823 -2.677007,1.75101 -6.031548,2.559773 -9.329037,2.249181 z"
       id="path20-0" />
    <path
       style="opacity:1;fill:#1a1a1a;fill-opacity:1;stroke:#000000;stroke-width:0.613721;stroke-dasharray:none;stroke-opacity:1"
       d="m 288.3602,169.94104 c -15.38425,-2.08677 -29.56446,-9.77137 -39.17122,-21.22782 -6.7425,-8.04071 -11.03613,-17.31838 -12.83784,-27.73996 -0.65868,-3.81001 -0.65654,-13.53245 0.004,-17.3189 3.07175,-17.61308 13.39956,-32.234469 29.14684,-41.264018 13.35845,-7.659786 29.89709,-10.076485 45.34485,-6.62599 14.41765,3.220405 27.0818,11.442032 35.86708,23.285092 14.48641,19.52849 14.68959,46.059436 0.50447,65.874896 -8.86032,12.37716 -22.37244,21.093 -37.56552,24.23122 -5.96877,1.23288 -15.42293,1.58165 -21.29248,0.78548 z m 14.75664,-10.41532 c 10.34531,-1.2788 20.21452,-5.37251 27.90308,-11.5741 1.13557,-0.91594 3.26681,-2.92541 4.73609,-4.46547 5.85673,-6.13888 9.43457,-12.58765 11.66455,-21.0244 l 0.96569,-3.65356 0.009,-6.49521 c 0.01,-7.07662 -0.15806,-8.35188 -1.75729,-13.351382 -4.06623,-12.711822 -13.09419,-22.970739 -25.53107,-29.012205 -17.91511,-8.70263 -38.92599,-7.350995 -55.32517,3.559081 -10.80672,7.189514 -18.10348,17.819238 -20.58251,29.984026 -0.70818,3.47509 -0.78117,12.94606 -0.12872,16.70107 1.2355,7.11058 5.01953,14.92746 10.22707,21.12663 7.82769,9.31824 20.2298,16.18279 32.38607,17.92565 1.11636,0.16005 2.33422,0.3357 2.70634,0.39032 1.56326,0.22947 10.61229,0.15094 12.72688,-0.11045 z"
       id="path21"
       transform="matrix(0.26458333,0,0,0.26458333,0.37738246,0)" />
  </g>
</svg>
